<?xml version="1.0" encoding="UTF-8" standalone="no"?>
<!-- Created with Inkscape (http://www.inkscape.org/) -->

<svg
   width="66.285591mm"
   height="52.163158mm"
   viewBox="0 0 66.285591 52.163158"
   version="1.1"
   id="svg3440"
   inkscape:version="1.2.2 (b0a8486541, 2022-12-01)"
   sodipodi:docname="logo.svg"
   xmlns:inkscape="http://www.inkscape.org/namespaces/inkscape"
   xmlns:sodipodi="http://sodipodi.sourceforge.net/DTD/sodipodi-0.dtd"
   xmlns="http://www.w3.org/2000/svg"
   xmlns:svg="http://www.w3.org/2000/svg">
  <sodipodi:namedview
     id="namedview3442"
     pagecolor="#ffffff"
     bordercolor="#666666"
     borderopacity="1.0"
     inkscape:showpageshadow="2"
     inkscape:pageopacity="0.0"
     inkscape:pagecheckerboard="0"
     inkscape:deskcolor="#d1d1d1"
     inkscape:document-units="mm"
     showgrid="false"
     inkscape:zoom="2.3786088"
     inkscape:cx="88.286901"
     inkscape:cy="95.013522"
     inkscape:window-width="1920"
     inkscape:window-height="1057"
     inkscape:window-x="0"
     inkscape:window-y="0"
     inkscape:window-maximized="1"
     inkscape:current-layer="layer1" />
  <defs
     id="defs3437" />
  <g
     inkscape:label="Layer 1"
     inkscape:groupmode="layer"
     id="layer1"
     transform="translate(-34.085816,-41.476015)">
    <g
       id="g3190"
       style="display:inline"
       transform="translate(-83.816541,-170.00307)">
      <path
         id="path3181"
         style="fill:#fdc137;fill-opacity:1;fill-rule:evenodd;stroke:none;stroke-width:0.0176389;stroke-linecap:round;stroke-linejoin:round;stroke-miterlimit:10;stroke-dasharray:none;stroke-dashoffset:0;stroke-opacity:1"
         d="m 162.39585,249.03018 c 7.14528,-3.48397 11.52997,-11.00922 10.91944,-19.05191 -0.68313,-8.99523 -7.43158,-16.35557 -16.33388,-17.81493 -0.85737,-0.14051 -1.72314,-0.22372 -2.59158,-0.24908 l 7.6e-4,1.4e-4 v 0 c -8.05597,-0.23539 -15.4311,4.49624 -18.57509,11.91711 -3.49362,8.25197 -0.93069,17.82268 7.13864,23.58386 8.06932,5.76119 20.42961,10.072 31.24331,9.65611 1.77659,-0.0708 1.65677,-2.10442 0.0816,-2.3766 -5.35559,-1.07309 -10.57984,-2.73881 -15.47917,-4.84364 -1.91666,-0.8224 -3.81635,-1.72967 -5.63945,-2.68872 -2.40508,-1.2516 -4.74846,-2.75671 -6.73926,-4.04374 -3.5919,-2.34103 -5.88026,-6.34646 -6.22443,-10.89495 -0.62271,-8.30561 5.29082,-16.01054 13.2085,-17.2098 0.79061,-0.11962 1.585,-0.17043 2.37505,-0.15192 7.00233,0.16297 12.53832,5.66903 13.09015,13.01935 0.62336,8.30542 -5.28944,16.01077 -13.20695,17.21083 l -0.004,3.5e-4 c -0.52736,0.0791 -1.05579,0.12756 -1.58291,0.14533 0,0 2.31033,1.20662 4.13944,2.0467 1.8291,0.84008 4.17983,1.74551 4.17983,1.74551 z"
         sodipodi:nodetypes="ccsccscscccccccccccczc" />
      <path
         id="path2252"
         style="fill:#faaa38;fill-opacity:1;fill-rule:evenodd;stroke:none;stroke-width:0.0881944;stroke-linecap:round;stroke-linejoin:round;stroke-miterlimit:10;stroke-dasharray:none;stroke-dashoffset:0;stroke-opacity:1"
         d="m 153.63741,211.90686 c -7.75964,0.0705 -14.77642,4.73588 -17.82216,11.92486 -3.49362,8.25198 -0.93024,17.82237 7.13909,23.58357 8.06934,5.7612 20.42935,10.07214 31.24306,9.65625 1.77659,-0.0708 1.65683,-2.10441 0.0816,-2.37659 -5.3556,-1.07309 -10.57983,-2.73881 -15.47916,-4.84364 -1.91666,-0.8224 -3.81634,-1.72967 -5.63945,-2.68872 -2.40508,-1.2516 -4.74832,-2.75665 -6.73912,-4.04368 -3.5919,-2.34103 -5.88026,-6.34646 -6.22443,-10.89494 -0.62271,-8.30563 5.29081,-16.01055 13.2085,-17.2098 0.79061,-0.11962 1.585,-0.17044 2.37505,-0.15193 7.00234,0.16297 12.53832,5.66902 13.09015,13.01936 0.33133,4.41445 -1.18412,8.65916 -3.86539,11.84785 l 0.0294,-0.005 c 7.43289,-8.4577 4.4718,-20.42777 -0.0858,-24.33804 -2.3283,-1.61387 -5.02931,-2.74141 -7.96747,-3.22306 -0.85737,-0.14051 -1.72314,-0.22372 -2.59158,-0.24908 l 5.2e-4,5.1e-4 c -0.25175,-0.007 -0.50262,-0.01 -0.75293,-0.008 z" />
      <path
         id="path2254"
         style="fill:#faaa38;fill-opacity:1;fill-rule:evenodd;stroke:none;stroke-width:0.0881944;stroke-linecap:round;stroke-linejoin:round;stroke-miterlimit:10;stroke-dasharray:none;stroke-dashoffset:0;stroke-opacity:1"
         d="m 153.63741,211.90686 c -7.75964,0.0705 -14.77642,4.73588 -17.82216,11.92486 -3.49362,8.25198 -0.93024,17.82237 7.13909,23.58357 8.06934,5.7612 20.42935,10.07214 31.24306,9.65625 1.77659,-0.0708 1.65683,-2.10441 0.0816,-2.37659 -5.3556,-1.07309 -10.57983,-2.73881 -15.47916,-4.84364 -1.91666,-0.8224 -3.81634,-1.72967 -5.63945,-2.68872 -2.40508,-1.2516 -4.74832,-2.75665 -6.73912,-4.04368 -3.5919,-2.34103 -5.88026,-6.34646 -6.22443,-10.89494 -0.62271,-8.30563 5.29081,-16.01055 13.2085,-17.2098 0.79061,-0.11962 1.585,-0.17044 2.37505,-0.15193 7.00234,0.16297 12.53832,5.66902 13.09015,13.01936 0.33133,4.41445 -1.18412,8.65916 -3.86539,11.84785 l 0.0294,-0.005 c 7.43289,-8.4577 4.4718,-20.42777 -0.0858,-24.33804 -2.3283,-1.61387 -5.02931,-2.74141 -7.96747,-3.22306 -0.85737,-0.14051 -1.72314,-0.22372 -2.59158,-0.24908 l 5.2e-4,5.1e-4 c -0.25175,-0.007 -0.50262,-0.01 -0.75293,-0.008 z" />
      <path
         id="path2256"
         style="font-variation-settings:normal;fill:#f39539;fill-opacity:0.996078;fill-rule:evenodd;stroke:none;stroke-width:0.0705556;stroke-linecap:round;stroke-linejoin:round;stroke-miterlimit:10;stroke-dasharray:none;stroke-dashoffset:0;stroke-opacity:1;stop-color:#000000"
         d="m 145.47564,218.89765 c -9.03964,5.77099 -9.99158,18.31631 -7.30292,23.87503 1.28306,1.71443 2.8793,3.28442 4.78162,4.64261 8.06934,5.7612 20.42935,10.07215 31.24306,9.65625 1.77659,-0.0708 1.65683,-2.10441 0.0816,-2.37658 -5.3556,-1.07309 -10.57983,-2.73881 -15.47916,-4.84364 -1.91666,-0.82241 -3.81634,-1.72967 -5.63945,-2.68872 -2.40508,-1.2516 -4.74832,-2.75665 -6.73912,-4.04368 -3.5919,-2.34103 -5.88026,-6.34646 -6.22443,-10.89495 -0.38529,-5.1389 1.7331,-10.046 5.27875,-13.32632 z" />
      <path
         id="path2681"
         style="clip-rule:evenodd;fill:#ffd038;fill-opacity:1;fill-rule:evenodd;stroke:none;stroke-width:0.0176389;stroke-dasharray:none;stroke-opacity:1"
         class="st1"
         d="m 134.64995,241.16852 c -8.45825,-7.94506 -14.10361,-17.92038 -16.71029,-28.63874 -0.26109,-1.07396 0.91709,-1.48816 1.39876,-0.45606 3.1814,6.63089 7.52352,13.05368 12.84441,18.84094 0,0 -0.0924,2.95874 0.69066,5.72513 0.78307,2.7664 1.77646,4.52873 1.77646,4.52873 z"
         sodipodi:nodetypes="cccczc" />
      <path
         class="st1"
         d="m 179.51612,255.69955 c -0.11453,-1.80642 -5.69299,-4.70803 -8.22674,-6.01691 -0.75943,-0.389 -0.45187,-1.07583 0.49507,-1.10331 6.07719,-0.0877 12.26949,5.34436 12.40169,6.84271 0.11732,1.52022 -5.48969,7.59342 -11.54266,8.20971 -0.93298,0.101 -1.32295,-0.54858 -0.6138,-1.02603 2.34892,-1.56963 7.61586,-5.12166 7.48644,-6.90617 z"
         id="path2260"
         style="clip-rule:evenodd;fill:#f5853a;fill-opacity:0.976471;fill-rule:evenodd;stroke-width:0.264583" />
    </g>
  </g>
</svg>
