<?xml version="1.0" encoding="UTF-8" standalone="no"?>
<!-- Created with Inkscape (http://www.inkscape.org/) -->

<svg
   width="210mm"
   height="297mm"
   viewBox="0 0 210 297"
   version="1.1"
   id="svg346"
   inkscape:version="1.2.2 (b0a8486541, 2022-12-01)"
   sodipodi:docname="qproxy.svg"
   xmlns:inkscape="http://www.inkscape.org/namespaces/inkscape"
   xmlns:sodipodi="http://sodipodi.sourceforge.net/DTD/sodipodi-0.dtd"
   xmlns="http://www.w3.org/2000/svg"
   xmlns:svg="http://www.w3.org/2000/svg">
  <sodipodi:namedview
     id="namedview348"
     pagecolor="#ffffff"
     bordercolor="#666666"
     borderopacity="1.0"
     inkscape:showpageshadow="2"
     inkscape:pageopacity="0.0"
     inkscape:pagecheckerboard="0"
     inkscape:deskcolor="#d1d1d1"
     inkscape:document-units="mm"
     showgrid="false"
     inkscape:zoom="0.70710678"
     inkscape:cx="575.58492"
     inkscape:cy="453.96255"
     inkscape:window-width="1920"
     inkscape:window-height="1027"
     inkscape:window-x="1920"
     inkscape:window-y="30"
     inkscape:window-maximized="1"
     inkscape:current-layer="layer1" />
  <defs
     id="defs343" />
  <g
     inkscape:label="Layer 1"
     inkscape:groupmode="layer"
     id="layer1">
    <g
       id="g8274"
       transform="translate(0,-2.3350935)">
      <path
         id="path1633"
         style="clip-rule:evenodd;fill:#ff9900;fill-opacity:1;fill-rule:evenodd;stroke:none;stroke-width:0.0881944;stroke-dasharray:none;stroke-opacity:1"
         class="st1"
         d="m 43.822607,54.592708 c -10.00339,-8.293769 -16.59837,-19.23443 -19.47996,-31.083199 -0.26109,-1.073962 0.91709,-1.488162 1.39876,-0.456064 3.42431,7.13717 8.19332,14.033211 14.0802,20.155214 0,0 -10e-4,2.389058 1.00451,5.569105 1.00594,3.180046 2.99649,5.814944 2.99649,5.814944 z"
         sodipodi:nodetypes="cccczc" />
      <path
         id="path1635"
         style="fill:#ff9900;fill-opacity:1;fill-rule:evenodd;stroke:none;stroke-width:0.0881944;stroke-linecap:round;stroke-linejoin:round;stroke-miterlimit:10;stroke-dasharray:none;stroke-dashoffset:0;stroke-opacity:1"
         d="m 60.793576,22.894129 c -8.055987,-0.23539 -15.431089,4.496215 -18.575091,11.917103 -3.493625,8.251992 -0.930697,17.822667 7.13864,23.58387 8.069338,5.761203 20.429584,10.071994 31.243305,9.656105 1.776598,-0.07079 1.656782,-2.104422 0.08165,-2.376598 -5.3556,-1.073092 -10.579822,-2.738812 -15.479166,-4.843636 -1.91666,-0.822402 -3.816336,-1.729675 -5.639449,-2.688725 -2.405083,-1.251604 -4.748449,-2.756713 -6.739261,-4.043744 -3.591896,-2.341023 -5.880257,-6.346458 -6.224432,-10.894945 -0.622706,-8.305638 5.290812,-16.010548 13.208502,-17.209799 0.790611,-0.119621 1.585,-0.170438 2.375049,-0.151929 7.00235,0.162974 12.538324,5.669011 13.090155,13.01936 0.623354,8.305429 -5.289421,16.010756 -13.206952,17.210832 l -0.0035,3.47e-4 c -1.534462,0.230236 -3.078035,0.200575 -4.571813,-0.08785 3.120793,1.798488 6.368342,3.375322 9.704832,4.720641 C 75.279893,57.618772 80.373802,49.586191 79.718826,40.958046 79.035689,31.9628 72.287267,24.602474 63.384941,23.143113 62.527575,23.002602 61.6618,22.919392 60.793367,22.894032 Z"
         sodipodi:nodetypes="cccccccccccccccccccc" />
      <path
         class="st1"
         d="m 85.919107,66.679269 c -0.11453,-1.80641 -5.69299,-4.70802 -8.22674,-6.016899 -0.75943,-0.388998 -0.45187,-1.075831 0.49507,-1.103315 6.07719,-0.08769 12.26949,5.344364 12.40169,6.842714 0.11732,1.52022 -5.48969,7.59342 -11.54266,8.20971 -0.93298,0.101 -1.32295,-0.54858 -0.6138,-1.02603 2.34892,-1.56963 7.61586,-5.12166 7.48644,-6.90618 z"
         id="path1637"
         style="clip-rule:evenodd;fill:#ff9900;fill-rule:evenodd;stroke-width:0.264583" />
    </g>
    <g
       id="g8255">
      <path
         id="path2231"
         style="fill:#fdc037;fill-opacity:1;fill-rule:evenodd;stroke:none;stroke-width:0.0881944;stroke-linecap:round;stroke-linejoin:round;stroke-miterlimit:10;stroke-dasharray:none;stroke-dashoffset:0;stroke-opacity:1"
         d="m 157.11963,20.559036 c -8.05598,-0.23539 -15.43109,4.496215 -18.57509,11.917103 -3.49362,8.251996 -0.9307,17.822666 7.13864,23.583866 8.06934,5.76121 20.42959,10.072 31.24331,9.65611 1.77659,-0.0708 1.65678,-2.10442 0.0816,-2.3766 -5.3556,-1.07309 -10.57983,-2.73881 -15.47917,-4.84364 -1.91666,-0.8224 -3.81634,-1.72967 -5.63945,-2.68872 -2.40508,-1.2516 -4.74845,-2.75671 -6.73926,-4.04374 -3.5919,-2.34103 -5.88026,-6.34646 -6.22443,-10.89495 -0.62271,-8.305637 5.29081,-16.010547 13.2085,-17.209798 0.79061,-0.119621 1.585,-0.170438 2.37505,-0.151929 7.00235,0.162974 12.53832,5.669011 13.09015,13.019357 0.62336,8.30543 -5.28942,16.01076 -13.20695,17.21083 l -0.004,3.5e-4 c -1.53446,0.23024 -3.07803,0.20058 -4.57181,-0.0879 3.12079,1.79849 6.36834,3.37532 9.70483,4.72064 8.08385,-3.08639 13.17776,-11.11897 12.52278,-19.74711 -0.68313,-8.995248 -7.43156,-16.355574 -16.33388,-17.814935 -0.85737,-0.140511 -1.72314,-0.223721 -2.59158,-0.249081 z"
         sodipodi:nodetypes="cccccccccccccccccccc" />
      <path
         id="path1396"
         style="fill:#f9a938;fill-opacity:1;fill-rule:evenodd;stroke:none;stroke-width:0.0881944;stroke-linecap:round;stroke-linejoin:round;stroke-miterlimit:10;stroke-dasharray:none;stroke-dashoffset:0;stroke-opacity:1"
         d="m 156.36668,20.5512 c -7.75964,0.07055 -14.77642,4.735876 -17.82217,11.924854 -3.49361,8.251988 -0.93074,17.822896 7.13859,23.58409 8.06933,5.761204 20.42986,10.071631 31.24357,9.655741 1.77659,-0.0708 1.65683,-2.104419 0.0816,-2.376599 -5.3556,-1.073089 -10.57983,-2.738804 -15.47916,-4.843632 -1.91666,-0.822399 -3.81634,-1.729675 -5.63945,-2.688724 -2.40508,-1.251599 -4.74883,-2.756653 -6.73964,-4.043681 -3.5919,-2.341028 -5.88026,-6.346457 -6.22443,-10.894943 -0.2376,-3.169133 0.47904,-6.249039 1.89291,-8.915218 5.84893,-13.673426 19.979,-9.694643 26.41906,-4.74803 -2.90981,-3.313608 -6.92957,-5.643376 -11.52695,-6.397026 -0.85719,-0.140483 -1.72279,-0.223702 -2.59105,-0.24908 h -5.2e-4 c -0.25157,-0.0073 -0.50227,-0.01003 -0.75241,-0.0078 z" />
      <path
         id="path1210"
         style="clip-rule:evenodd;fill:#ffd038;fill-opacity:1;fill-rule:evenodd;stroke:none;stroke-width:0.0881944;stroke-dasharray:none;stroke-opacity:1"
         class="st1"
         d="m 140.14866,52.257615 c -10.00339,-8.29377 -16.59837,-19.23443 -19.47996,-31.083199 -0.26109,-1.073962 0.91709,-1.488162 1.39876,-0.456064 3.42431,7.13717 8.19332,14.033213 14.0802,20.155213 0,0 -0.001,2.38906 1.00451,5.56911 1.00594,3.18004 2.99649,5.81494 2.99649,5.81494 z"
         sodipodi:nodetypes="cccczc" />
      <path
         class="st1"
         d="m 182.24516,64.344175 c -0.11453,-1.80641 -5.69299,-4.70802 -8.22674,-6.0169 -0.75943,-0.389 -0.45187,-1.07583 0.49507,-1.10331 6.07719,-0.0877 12.26949,5.34436 12.40169,6.84271 0.11732,1.52022 -5.48969,7.59342 -11.54266,8.20971 -0.93298,0.101 -1.32295,-0.54858 -0.6138,-1.02603 2.34892,-1.56963 7.61586,-5.12166 7.48644,-6.90618 z"
         id="path1214"
         style="clip-rule:evenodd;fill:#f5853a;fill-opacity:0.976471;fill-rule:evenodd;stroke-width:0.264583" />
      <path
         id="path1212"
         style="fill:#f8a138;fill-opacity:0.992157;fill-rule:evenodd;stroke:none;stroke-width:0.0881944;stroke-linecap:round;stroke-linejoin:round;stroke-miterlimit:10;stroke-dasharray:none;stroke-dashoffset:0;stroke-opacity:1"
         d="m 139.6354,49.507056 c 1.43717,2.463479 3.4586,4.704575 6.0477,6.553088 8.06933,5.761204 20.42986,10.071631 31.24357,9.655741 1.77659,-0.0708 1.65683,-2.104419 0.0816,-2.376599 -5.22595,-1.047112 -10.32611,-2.659694 -15.12208,-4.692737 -9.09123,0.986043 -19.00861,-6.459168 -22.25084,-9.139493 z" />
    </g>
    <g
       id="g8262"
       transform="translate(6.17139,4.2791031)">
      <path
         id="path5978"
         style="fill:#fdc137;fill-opacity:1;fill-rule:evenodd;stroke:none;stroke-width:0.0881944;stroke-linecap:round;stroke-linejoin:round;stroke-miterlimit:10;stroke-dasharray:none;stroke-dashoffset:0;stroke-opacity:1"
         d="m 152.61096,79.682959 c -8.05598,-0.23539 -15.43109,4.496215 -18.57509,11.917103 -3.49362,8.251996 -0.9307,17.822668 7.13864,23.583868 8.06934,5.76121 20.42959,10.072 31.24331,9.65611 1.77659,-0.0708 1.65678,-2.10442 0.0816,-2.3766 -5.3556,-1.07309 -10.57983,-2.73881 -15.47917,-4.84364 -1.91666,-0.8224 -3.81634,-1.72967 -5.63945,-2.68872 -2.40508,-1.2516 -4.74845,-2.75671 -6.73926,-4.04374 -3.5919,-2.34103 -5.88026,-6.34646 -6.22443,-10.894952 -0.62271,-8.305637 5.29081,-16.010547 13.2085,-17.209798 0.79061,-0.119621 1.585,-0.170438 2.37505,-0.151929 7.00235,0.162974 12.53832,5.669011 13.09015,13.019357 0.62336,8.305432 -5.28942,16.010762 -13.20695,17.210832 l -0.004,3.5e-4 c -1.53446,0.23024 -3.07803,0.20058 -4.57181,-0.0879 3.12079,1.79849 6.36834,3.37532 9.70483,4.72064 8.08385,-3.08639 13.17776,-11.11897 12.52278,-19.747112 -0.68313,-8.995248 -7.43156,-16.355574 -16.33388,-17.814935 -0.85737,-0.140511 -1.72314,-0.223721 -2.59158,-0.249081 z"
         sodipodi:nodetypes="cccccccccccccccccccc" />
      <path
         id="path3044"
         style="fill:#faaa38;fill-opacity:1;fill-rule:evenodd;stroke:none;stroke-width:0.0881944;stroke-linecap:round;stroke-linejoin:round;stroke-miterlimit:10;stroke-dasharray:none;stroke-dashoffset:0;stroke-opacity:1"
         d="m 151.85778,79.675418 c -7.75964,0.07055 -14.77642,4.735875 -17.82216,11.924853 -3.49362,8.251987 -0.93024,17.822379 7.13909,23.583579 8.06934,5.7612 20.42935,10.07214 31.24306,9.65625 1.77659,-0.0708 1.65683,-2.10441 0.0816,-2.37659 -5.3556,-1.07309 -10.57983,-2.73881 -15.47916,-4.84364 -1.91666,-0.8224 -3.81634,-1.72967 -5.63945,-2.68872 -2.40508,-1.2516 -4.74832,-2.75665 -6.73912,-4.04368 -3.5919,-2.34103 -5.88026,-6.34646 -6.22443,-10.894942 -0.62271,-8.305633 5.29081,-16.010556 13.2085,-17.209806 0.79061,-0.119621 1.585,-0.170438 2.37505,-0.151929 7.00234,0.162974 12.53832,5.669022 13.09015,13.019365 0.33133,4.414452 -1.18412,8.659162 -3.86539,11.847852 l 0.0294,-0.005 c 7.43289,-8.457702 4.4718,-20.427773 -0.0858,-24.338048 -2.3283,-1.613865 -5.02931,-2.741404 -7.96747,-3.223059 -0.85737,-0.140511 -1.72314,-0.22372 -2.59158,-0.24908 l 5.2e-4,5.16e-4 c -0.25175,-0.0074 -0.50262,-0.01003 -0.75293,-0.0078 z" />
      <path
         id="path3046"
         style="font-variation-settings:normal;opacity:1;fill:#f39539;fill-opacity:0.996078;fill-rule:evenodd;stroke:none;stroke-width:0.0705556;stroke-linecap:round;stroke-linejoin:round;stroke-miterlimit:10;stroke-dasharray:none;stroke-dashoffset:0;stroke-opacity:1;stop-color:#000000;stop-opacity:1"
         d="m 143.69601,86.666206 c -9.03964,5.770992 -9.99158,18.316314 -7.30292,23.875034 1.28306,1.71443 2.8793,3.28442 4.78162,4.64261 8.06934,5.7612 20.42935,10.07214 31.24306,9.65625 1.77659,-0.0708 1.65683,-2.10441 0.0816,-2.37659 -5.3556,-1.07309 -10.57983,-2.73881 -15.47916,-4.84364 -1.91666,-0.8224 -3.81634,-1.72967 -5.63945,-2.68872 -2.40508,-1.2516 -4.74832,-2.75665 -6.73912,-4.04368 -3.5919,-2.34103 -5.88026,-6.34646 -6.22443,-10.894942 -0.38529,-5.1389 1.7331,-10.046008 5.27875,-13.326322 z" />
      <path
         id="path12932"
         style="clip-rule:evenodd;fill:#ffd038;fill-opacity:1;fill-rule:evenodd;stroke:none;stroke-width:0.0881944;stroke-dasharray:none;stroke-opacity:1"
         class="st1"
         d="m 135.63999,111.38154 c -10.00339,-8.29377 -16.59837,-19.234432 -19.47996,-31.083201 -0.26109,-1.073962 0.91709,-1.488162 1.39876,-0.456064 3.42431,7.13717 8.19332,14.033213 14.0802,20.155213 0,0 -0.001,2.389062 1.00451,5.569112 1.00594,3.18004 2.99649,5.81494 2.99649,5.81494 z"
         sodipodi:nodetypes="cccczc" />
      <path
         class="st1"
         d="m 177.73649,123.4681 c -0.11453,-1.80641 -5.69299,-4.70802 -8.22674,-6.0169 -0.75943,-0.389 -0.45187,-1.07583 0.49507,-1.10331 6.07719,-0.0877 12.26949,5.34436 12.40169,6.84271 0.11732,1.52022 -5.48969,7.59342 -11.54266,8.20971 -0.93298,0.101 -1.32295,-0.54858 -0.6138,-1.02603 2.34892,-1.56963 7.61586,-5.12166 7.48644,-6.90618 z"
         id="path12936"
         style="clip-rule:evenodd;fill:#f5853a;fill-opacity:0.976471;fill-rule:evenodd;stroke-width:0.264583" />
    </g>
    <g
       id="g8269"
       transform="translate(6.17139)">
      <path
         id="path7594"
         style="fill:#fdc338;fill-opacity:1;fill-rule:evenodd;stroke:none;stroke-width:0.0881944;stroke-linecap:round;stroke-linejoin:round;stroke-miterlimit:10;stroke-dasharray:none;stroke-dashoffset:0;stroke-opacity:1"
         d="m 149.28552,147.36509 c -8.05598,-0.23539 -15.43109,4.49621 -18.57509,11.9171 -3.49362,8.252 -0.9307,17.82267 7.13864,23.58387 8.06934,5.76121 20.42959,10.072 31.24331,9.65611 1.77659,-0.0708 1.65678,-2.10442 0.0816,-2.3766 -5.3556,-1.07309 -10.57983,-2.73881 -15.47917,-4.84364 -1.91666,-0.8224 -3.81634,-1.72967 -5.63945,-2.68872 -2.40508,-1.2516 -4.74845,-2.75671 -6.73926,-4.04374 -3.5919,-2.34103 -5.88026,-6.34646 -6.22443,-10.89495 -0.62271,-8.30564 5.29081,-16.01055 13.2085,-17.2098 0.79061,-0.11962 1.585,-0.17044 2.37505,-0.15193 7.00235,0.16297 12.53832,5.66901 13.09015,13.01936 0.62336,8.30543 -5.28942,16.01076 -13.20695,17.21083 l -0.004,3.5e-4 c -1.53446,0.23024 -3.07803,0.20058 -4.57181,-0.0879 3.12079,1.79849 6.36834,3.37532 9.70483,4.72064 8.08385,-3.08639 13.17776,-11.11897 12.52278,-19.74711 -0.68313,-8.99525 -7.43156,-16.35558 -16.33388,-17.81494 -0.85737,-0.14051 -1.72314,-0.22372 -2.59158,-0.24908 z"
         sodipodi:nodetypes="cccccccccccccccccccc" />
      <path
         id="path7177"
         style="fill:#f9a938;fill-opacity:1;fill-rule:evenodd;stroke:none;stroke-width:0.0881944;stroke-linecap:round;stroke-linejoin:round;stroke-miterlimit:10;stroke-dasharray:none;stroke-dashoffset:0;stroke-opacity:1"
         d="m 148.53254,147.35741 c -0.44144,0.004 -0.88017,0.0255 -1.3162,0.0589 l -2.31562,4.00493 c 1.07874,-0.4502 2.21585,-0.77729 3.39927,-0.95653 0.79061,-0.11962 1.585,-0.17044 2.37505,-0.15193 7.00234,0.16297 12.53833,5.66902 13.09016,13.01936 0.62336,8.30542 -5.28943,16.01077 -13.20695,17.21084 l -0.004,5.1e-4 c -1.53445,0.23024 -3.07803,0.20063 -4.57181,-0.0879 3.12079,1.79849 6.36835,3.37533 9.70483,4.72064 8.08385,-3.08638 13.17773,-11.11898 12.52275,-19.74711 -0.68312,-8.99524 -7.43157,-16.35558 -16.33388,-17.81493 -0.8572,-0.14049 -1.72279,-0.22371 -2.59106,-0.24908 h -5.2e-4 c -0.25157,-0.007 -0.50227,-0.01 -0.7524,-0.008 z m -13.37852,20.92172 -3.97546,6.87607 c 1.44999,2.91906 3.68114,5.57643 6.67039,7.71064 8.06933,5.7612 20.42986,10.07215 31.24357,9.65626 1.77659,-0.0708 1.65683,-2.10442 0.0816,-2.3766 -5.35559,-1.07309 -10.57982,-2.7388 -15.47916,-4.84363 -1.91666,-0.8224 -3.81634,-1.72968 -5.63945,-2.68873 -2.40508,-1.2516 -4.74883,-2.75665 -6.73964,-4.04368 -3.43154,-2.23651 -5.66847,-5.99336 -6.1619,-10.29033 z" />
      <path
         id="path12938"
         style="clip-rule:evenodd;fill:#ffd038;fill-opacity:1;fill-rule:evenodd;stroke:none;stroke-width:0.0881944;stroke-dasharray:none;stroke-opacity:1"
         class="st1"
         d="m 132.31455,179.06367 c -10.00339,-8.29377 -16.59837,-19.23443 -19.47996,-31.0832 -0.26109,-1.07396 0.91709,-1.48816 1.39876,-0.45607 3.42431,7.13717 8.19332,14.03322 14.0802,20.15522 0,0 -0.001,2.38906 1.00451,5.56911 1.00594,3.18004 2.99649,5.81494 2.99649,5.81494 z"
         sodipodi:nodetypes="cccczc" />
      <path
         id="path12940"
         style="fill:#f8a138;fill-opacity:0.992157;fill-rule:evenodd;stroke:none;stroke-width:0.0881944;stroke-linecap:round;stroke-linejoin:round;stroke-miterlimit:10;stroke-dasharray:none;stroke-dashoffset:0;stroke-opacity:1"
         d="m 164.29591,155.10319 -1.81229,3.14503 c 0.69872,1.54509 1.14445,3.25737 1.28158,5.08393 0.62336,8.30542 -5.28943,16.01077 -13.20695,17.21084 l -0.004,5.1e-4 c -1.53445,0.23024 -3.07803,0.20063 -4.57181,-0.0879 3.12079,1.79849 6.36835,3.37533 9.70483,4.72064 8.08385,-3.08638 13.17773,-11.11898 12.52275,-19.74711 -0.29274,-3.85472 -1.70192,-7.40744 -3.91449,-10.32599 z m -19.38279,25.73228 -2.74505,4.74752 c 7.78775,4.33691 17.89443,7.2864 26.92445,6.93911 1.77659,-0.0708 1.65683,-2.10442 0.0816,-2.3766 -5.35559,-1.07309 -10.57982,-2.7388 -15.47916,-4.84363 -1.91666,-0.8224 -3.81634,-1.72968 -5.63945,-2.68873 -1.06879,-0.55619 -2.12355,-1.16273 -3.14244,-1.77767 z" />
      <path
         class="st1"
         d="m 174.41105,191.15023 c -0.11453,-1.80641 -5.69299,-4.70802 -8.22674,-6.0169 -0.75943,-0.389 -0.45187,-1.07583 0.49507,-1.10331 6.07719,-0.0877 12.26949,5.34436 12.40169,6.84271 0.11732,1.52022 -5.48969,7.59342 -11.54266,8.20971 -0.93298,0.101 -1.32295,-0.54858 -0.6138,-1.02603 2.34892,-1.56963 7.61586,-5.12166 7.48644,-6.90618 z"
         id="path12942"
         style="clip-rule:evenodd;fill:#f5853a;fill-opacity:0.976471;fill-rule:evenodd;stroke-width:0.264583" />
    </g>
  </g>
  <g
     inkscape:groupmode="layer"
     id="layer2"
     inkscape:label="cuts"
     style="display:none">
    <path
       style="font-variation-settings:normal;opacity:1;fill:none;fill-opacity:0.18894;fill-rule:evenodd;stroke:#000000;stroke-width:0.0705556;stroke-linecap:round;stroke-linejoin:round;stroke-miterlimit:10;stroke-dasharray:none;stroke-dashoffset:0;stroke-opacity:1;stop-color:#000000;stop-opacity:1"
       d="m 144.05061,94.53853 c -10.34029,5.99974 -10.78578,20.56347 -7.24569,25.40689 2.80359,3.83576 10.42306,9.04157 14.0978,10.19094 3.67475,1.14937 12.40913,3.8811 16.18144,3.79582 3.7723,-0.0853 6.7517,0.27971 7.18804,-0.54667 0.43635,-0.82639 0.15112,-2.48925 -0.53642,-3.09169 -0.68753,-0.60245 -7.93078,-1.47672 -9.89804,-2.15166 -1.96726,-0.67493 -7.56935,-2.60734 -10.22869,-4.06748 -2.65935,-1.46013 -9.13252,-5.3465 -9.13252,-5.3465 z"
       id="path3042"
       sodipodi:nodetypes="cssssssscc" />
    <path
       style="font-variation-settings:normal;opacity:1;fill:none;fill-opacity:0.18894;fill-rule:evenodd;stroke:#000000;stroke-width:0.0705556;stroke-linecap:round;stroke-linejoin:round;stroke-miterlimit:10;stroke-dasharray:none;stroke-dashoffset:0;stroke-opacity:1;stop-color:#000000;stop-opacity:1"
       d="m 143.37907,36.384767 c 5.65117,-23.634676 29.80833,-10.960811 31.10228,-5.194689 4.47382,-5.339787 -0.10813,-10.263724 -0.10813,-10.263724 l -26.27824,-3.740463 -12.51192,14.731831 3.45673,29.033509 11.41894,10.036328 29.27613,-4.410424 0.13338,-4.819502 -16.07015,-2.576268 -11.20184,-5.791302 z"
       id="path2229"
       sodipodi:nodetypes="cccccccccccc" />
    <path
       style="font-variation-settings:normal;opacity:1;fill:none;fill-opacity:0.18894;fill-rule:evenodd;stroke:#000000;stroke-width:0.0705556;stroke-linecap:round;stroke-linejoin:round;stroke-miterlimit:10;stroke-dasharray:none;stroke-dashoffset:0;stroke-opacity:1;stop-color:#000000;stop-opacity:1"
       d="m 162.90546,58.500147 c -11.30093,2.053663 -24.38039,-9.944171 -24.38039,-9.944171 l 12.65016,19.697059 27.95201,-1.885286 0.19996,-4.11567 -12.82829,-3.014189 z"
       id="path1296"
       sodipodi:nodetypes="ccccccc" />
    <path
       style="font-variation-settings:normal;opacity:1;fill:none;fill-opacity:0.18894;fill-rule:evenodd;stroke:#000000;stroke-width:0.0705556;stroke-linecap:round;stroke-linejoin:round;stroke-miterlimit:10;stroke-dasharray:none;stroke-dashoffset:0;stroke-opacity:1;stop-color:#000000;stop-opacity:1"
       d="m 162.98695,115.74633 c 7.95209,-9.04849 4.00765,-22.118116 -1.06101,-25.036377 -5.06867,-2.918262 -18.21509,-7.534209 -26.82807,5.413467 -8.61297,12.94767 1.1224,24.67792 5.00982,27.39794 3.88743,2.72003 14.52748,8.46609 24.78166,9.43604 10.25419,0.96995 9.22345,0.58274 9.40904,-0.3731 0.18558,-0.95584 0.20354,-2.85253 -1.23507,-2.91867 -1.43861,-0.0661 -10.0322,-1.54454 -14.44191,-3.39688 -4.40972,-1.85233 -10.09421,-4.66089 -11.12192,-5.75633 -1.02771,-1.09544 0.0955,-2.11566 0.0955,-2.11566 z"
       id="path5976"
       sodipodi:nodetypes="csssssssscc" />
    <path
       id="path7171"
       style="font-variation-settings:normal;opacity:1;vector-effect:none;fill:none;fill-opacity:0.711922;fill-rule:evenodd;stroke:#011c00;stroke-width:0.705556;stroke-linecap:round;stroke-linejoin:round;stroke-miterlimit:10;stroke-dasharray:none;stroke-dashoffset:0;stroke-opacity:0.764977;stop-color:#000000;stop-opacity:1"
       d="m 171.99825,141.7373 -15.84374,27.49464 -3.39973,-1.95909 -18.17282,31.43087 24.81932,14.34981 34.05901,-58.90702 z" />
    <path
       id="path7175"
       style="font-variation-settings:normal;opacity:1;vector-effect:none;fill:none;fill-opacity:0.711922;fill-rule:evenodd;stroke:#011c00;stroke-width:0.705556;stroke-linecap:round;stroke-linejoin:round;stroke-miterlimit:10;stroke-dasharray:none;stroke-dashoffset:0;stroke-opacity:0.764977;stop-color:#000000;stop-opacity:1"
       d="m 133.06829,122.35795 -15.84374,27.49464 -3.39973,-1.95909 -18.172816,31.43087 24.819316,14.34981 34.05901,-58.90702 z" />
  </g>
</svg>
