<?xml version="1.0" encoding="UTF-8" standalone="no"?>
<!-- Created with Inkscape (http://www.inkscape.org/) -->

<svg
   width="210mm"
   height="297mm"
   viewBox="0 0 210 297"
   version="1.1"
   id="svg346"
   inkscape:version="1.2.2 (b0a8486541, 2022-12-01)"
   sodipodi:docname="logo.svg"
   xmlns:inkscape="http://www.inkscape.org/namespaces/inkscape"
   xmlns:sodipodi="http://sodipodi.sourceforge.net/DTD/sodipodi-0.dtd"
   xmlns="http://www.w3.org/2000/svg"
   xmlns:svg="http://www.w3.org/2000/svg">
  <sodipodi:namedview
     id="namedview348"
     pagecolor="#ffffff"
     bordercolor="#666666"
     borderopacity="1.0"
     inkscape:showpageshadow="2"
     inkscape:pageopacity="0.0"
     inkscape:pagecheckerboard="0"
     inkscape:deskcolor="#d1d1d1"
     inkscape:document-units="mm"
     showgrid="false"
     inkscape:zoom="1.4142136"
     inkscape:cx="392.09071"
     inkscape:cy="433.45646"
     inkscape:window-width="1409"
     inkscape:window-height="971"
     inkscape:window-x="507"
     inkscape:window-y="38"
     inkscape:window-maximized="0"
     inkscape:current-layer="layer1" />
  <defs
     id="defs343" />
  <g
     inkscape:label="Layer 1"
     inkscape:groupmode="layer"
     id="layer1">
    <path
       id="path361"
       style="fill:#faaa38;fill-opacity:1;fill-rule:evenodd;stroke:none;stroke-width:0.0881944;stroke-linecap:round;stroke-linejoin:round;stroke-miterlimit:10;stroke-dasharray:none;stroke-dashoffset:0;stroke-opacity:1"
       d="m 59.203897,143.73331 c -7.75964,0.0705 -14.77642,4.73588 -17.82216,11.92486 -3.49362,8.25198 -0.93024,17.82237 7.13909,23.58357 8.06934,5.7612 20.42935,10.07214 31.24306,9.65625 1.77659,-0.0708 1.65683,-2.10441 0.0816,-2.37659 -5.3556,-1.07309 -10.57983,-2.73881 -15.47916,-4.84364 -1.91666,-0.8224 -3.81634,-1.72967 -5.63945,-2.68872 -2.40508,-1.2516 -4.74832,-2.75665 -6.73912,-4.04368 -3.5919,-2.34103 -5.88026,-6.34646 -6.22443,-10.89494 -0.62271,-8.30563 5.29081,-16.01055 13.2085,-17.2098 0.79061,-0.11962 1.585,-0.17044 2.37505,-0.15193 7.00234,0.16297 12.53832,5.66902 13.09015,13.01936 0.33133,4.41445 -1.18412,8.65916 -3.86539,11.84785 l 0.0294,-0.005 c 7.43289,-8.4577 4.4718,-20.42777 -0.0858,-24.33804 -2.3283,-1.61387 -5.02931,-2.74141 -7.96747,-3.22306 -0.85737,-0.14051 -1.72314,-0.22372 -2.59158,-0.24908 l 5.2e-4,5.1e-4 c -0.25175,-0.007 -0.50262,-0.01 -0.75293,-0.008 z" />
    <path
       id="path357"
       style="fill:#faaa38;fill-opacity:1;fill-rule:evenodd;stroke:none;stroke-width:0.0881944;stroke-linecap:round;stroke-linejoin:round;stroke-miterlimit:10;stroke-dasharray:none;stroke-dashoffset:0;stroke-opacity:1"
       d="m 59.578074,84.53416 c -7.75964,0.07055 -14.77642,4.735875 -17.82216,11.924853 -3.49362,8.251987 -0.93024,17.822377 7.13909,23.583577 8.06934,5.7612 20.42935,10.07214 31.24306,9.65625 1.77659,-0.0708 1.65683,-2.10441 0.0816,-2.37659 -5.3556,-1.07309 -10.57983,-2.73881 -15.47916,-4.84364 -1.91666,-0.8224 -3.81634,-1.72967 -5.63945,-2.68872 -2.40508,-1.2516 -4.74832,-2.75665 -6.73912,-4.04368 -3.5919,-2.34103 -5.88026,-6.34646 -6.22443,-10.89494 -0.62271,-8.305633 5.29081,-16.010556 13.2085,-17.209806 0.79061,-0.119621 1.585,-0.170438 2.37505,-0.151929 7.00234,0.162974 12.53832,5.669022 13.09015,13.019365 0.33133,4.41445 -1.18412,8.65916 -3.86539,11.84785 l 0.0294,-0.005 c 7.43289,-8.4577 4.4718,-20.427771 -0.0858,-24.338046 -2.3283,-1.613865 -5.02931,-2.741404 -7.96747,-3.223059 -0.85737,-0.140511 -1.72314,-0.22372 -2.59158,-0.24908 l 5.2e-4,5.16e-4 c -0.25175,-0.0074 -0.50262,-0.01003 -0.75293,-0.0078 z" />
    <g
       id="g8274"
       transform="translate(0,-2.3350935)">
      <path
         id="path1633"
         style="clip-rule:evenodd;fill:#ff9900;fill-opacity:1;fill-rule:evenodd;stroke:none;stroke-width:0.0881944;stroke-dasharray:none;stroke-opacity:1"
         class="st1"
         d="m 43.822607,54.592708 c -10.00339,-8.293769 -16.59837,-19.23443 -19.47996,-31.083199 -0.26109,-1.073962 0.91709,-1.488162 1.39876,-0.456064 3.42431,7.13717 8.19332,14.033211 14.0802,20.155214 0,0 -10e-4,2.389058 1.00451,5.569105 1.00594,3.180046 2.99649,5.814944 2.99649,5.814944 z"
         sodipodi:nodetypes="cccczc" />
      <path
         id="path1635"
         style="fill:#ff9900;fill-opacity:1;fill-rule:evenodd;stroke:none;stroke-width:0.0881944;stroke-linecap:round;stroke-linejoin:round;stroke-miterlimit:10;stroke-dasharray:none;stroke-dashoffset:0;stroke-opacity:1"
         d="m 60.793576,22.894129 c -8.055987,-0.23539 -15.431089,4.496215 -18.575091,11.917103 -3.493625,8.251992 -0.930697,17.822667 7.13864,23.58387 8.069338,5.761203 20.429584,10.071994 31.243305,9.656105 1.776598,-0.07079 1.656782,-2.104422 0.08165,-2.376598 -5.3556,-1.073092 -10.579822,-2.738812 -15.479166,-4.843636 -1.91666,-0.822402 -3.816336,-1.729675 -5.639449,-2.688725 -2.405083,-1.251604 -4.748449,-2.756713 -6.739261,-4.043744 -3.591896,-2.341023 -5.880257,-6.346458 -6.224432,-10.894945 -0.622706,-8.305638 5.290812,-16.010548 13.208502,-17.209799 0.790611,-0.119621 1.585,-0.170438 2.375049,-0.151929 7.00235,0.162974 12.538324,5.669011 13.090155,13.01936 0.623354,8.305429 -5.289421,16.010756 -13.206952,17.210832 l -0.0035,3.47e-4 c -1.534462,0.230236 -3.078035,0.200575 -4.571813,-0.08785 3.120793,1.798488 6.368342,3.375322 9.704832,4.720641 C 75.279893,57.618772 80.373802,49.586191 79.718826,40.958046 79.035689,31.9628 72.287267,24.602474 63.384941,23.143113 62.527575,23.002602 61.6618,22.919392 60.793367,22.894032 Z"
         sodipodi:nodetypes="cccccccccccccccccccc" />
      <path
         class="st1"
         d="m 85.919107,66.679269 c -0.11453,-1.80641 -5.69299,-4.70802 -8.22674,-6.016899 -0.75943,-0.388998 -0.45187,-1.075831 0.49507,-1.103315 6.07719,-0.08769 12.26949,5.344364 12.40169,6.842714 0.11732,1.52022 -5.48969,7.59342 -11.54266,8.20971 -0.93298,0.101 -1.32295,-0.54858 -0.6138,-1.02603 2.34892,-1.56963 7.61586,-5.12166 7.48644,-6.90618 z"
         id="path1637"
         style="clip-rule:evenodd;fill:#ff9900;fill-rule:evenodd;stroke-width:0.264583" />
    </g>
    <g
       id="g8255">
      <path
         id="path2231"
         style="fill:#fdc037;fill-opacity:1;fill-rule:evenodd;stroke:none;stroke-width:0.0881944;stroke-linecap:round;stroke-linejoin:round;stroke-miterlimit:10;stroke-dasharray:none;stroke-dashoffset:0;stroke-opacity:1"
         d="m 157.11963,20.559036 c -8.05598,-0.23539 -15.43109,4.496215 -18.57509,11.917103 -3.49362,8.251996 -0.9307,17.822666 7.13864,23.583866 8.06934,5.76121 20.42959,10.072 31.24331,9.65611 1.77659,-0.0708 1.65678,-2.10442 0.0816,-2.3766 -5.3556,-1.07309 -10.57983,-2.73881 -15.47917,-4.84364 -1.91666,-0.8224 -3.81634,-1.72967 -5.63945,-2.68872 -2.40508,-1.2516 -4.74845,-2.75671 -6.73926,-4.04374 -3.5919,-2.34103 -5.88026,-6.34646 -6.22443,-10.89495 -0.62271,-8.305637 5.29081,-16.010547 13.2085,-17.209798 0.79061,-0.119621 1.585,-0.170438 2.37505,-0.151929 7.00235,0.162974 12.53832,5.669011 13.09015,13.019357 0.62336,8.30543 -5.28942,16.01076 -13.20695,17.21083 l -0.004,3.5e-4 c -1.53446,0.23024 -3.07803,0.20058 -4.57181,-0.0879 3.12079,1.79849 6.36834,3.37532 9.70483,4.72064 8.08385,-3.08639 13.17776,-11.11897 12.52278,-19.74711 -0.68313,-8.995248 -7.43156,-16.355574 -16.33388,-17.814935 -0.85737,-0.140511 -1.72314,-0.223721 -2.59158,-0.249081 z"
         sodipodi:nodetypes="cccccccccccccccccccc" />
      <path
         id="path1396"
         style="fill:#f9a938;fill-opacity:1;fill-rule:evenodd;stroke:none;stroke-width:0.0881944;stroke-linecap:round;stroke-linejoin:round;stroke-miterlimit:10;stroke-dasharray:none;stroke-dashoffset:0;stroke-opacity:1"
         d="m 156.36668,20.5512 c -7.75964,0.07055 -14.77642,4.735876 -17.82217,11.924854 -3.49361,8.251988 -0.93074,17.822896 7.13859,23.58409 8.06933,5.761204 20.42986,10.071631 31.24357,9.655741 1.77659,-0.0708 1.65683,-2.104419 0.0816,-2.376599 -5.3556,-1.073089 -10.57983,-2.738804 -15.47916,-4.843632 -1.91666,-0.822399 -3.81634,-1.729675 -5.63945,-2.688724 -2.40508,-1.251599 -4.74883,-2.756653 -6.73964,-4.043681 -3.5919,-2.341028 -5.88026,-6.346457 -6.22443,-10.894943 -0.2376,-3.169133 0.47904,-6.249039 1.89291,-8.915218 5.84893,-13.673426 19.979,-9.694643 26.41906,-4.74803 -2.90981,-3.313608 -6.92957,-5.643376 -11.52695,-6.397026 -0.85719,-0.140483 -1.72279,-0.223702 -2.59105,-0.24908 h -5.2e-4 c -0.25157,-0.0073 -0.50227,-0.01003 -0.75241,-0.0078 z" />
      <path
         id="path1210"
         style="clip-rule:evenodd;fill:#ffd038;fill-opacity:1;fill-rule:evenodd;stroke:none;stroke-width:0.0881944;stroke-dasharray:none;stroke-opacity:1"
         class="st1"
         d="m 140.14866,52.257615 c -10.00339,-8.29377 -16.59837,-19.23443 -19.47996,-31.083199 -0.26109,-1.073962 0.91709,-1.488162 1.39876,-0.456064 3.42431,7.13717 8.19332,14.033213 14.0802,20.155213 0,0 -0.001,2.38906 1.00451,5.56911 1.00594,3.18004 2.99649,5.81494 2.99649,5.81494 z"
         sodipodi:nodetypes="cccczc" />
      <path
         class="st1"
         d="m 182.24516,64.344175 c -0.11453,-1.80641 -5.69299,-4.70802 -8.22674,-6.0169 -0.75943,-0.389 -0.45187,-1.07583 0.49507,-1.10331 6.07719,-0.0877 12.26949,5.34436 12.40169,6.84271 0.11732,1.52022 -5.48969,7.59342 -11.54266,8.20971 -0.93298,0.101 -1.32295,-0.54858 -0.6138,-1.02603 2.34892,-1.56963 7.61586,-5.12166 7.48644,-6.90618 z"
         id="path1214"
         style="clip-rule:evenodd;fill:#f5853a;fill-opacity:0.976471;fill-rule:evenodd;stroke-width:0.264583" />
      <path
         id="path1212"
         style="fill:#f8a138;fill-opacity:0.992157;fill-rule:evenodd;stroke:none;stroke-width:0.0881944;stroke-linecap:round;stroke-linejoin:round;stroke-miterlimit:10;stroke-dasharray:none;stroke-dashoffset:0;stroke-opacity:1"
         d="m 139.6354,49.507056 c 1.43717,2.463479 3.4586,4.704575 6.0477,6.553088 8.06933,5.761204 20.42986,10.071631 31.24357,9.655741 1.77659,-0.0708 1.65683,-2.104419 0.0816,-2.376599 -5.22595,-1.047112 -10.32611,-2.659694 -15.12208,-4.692737 -9.09123,0.986043 -19.00861,-6.459168 -22.25084,-9.139493 z" />
    </g>
    <g
       id="g8262"
       transform="translate(6.17139,4.2791031)">
      <path
         id="path5978"
         style="fill:#fdc137;fill-opacity:1;fill-rule:evenodd;stroke:none;stroke-width:0.0881944;stroke-linecap:round;stroke-linejoin:round;stroke-miterlimit:10;stroke-dasharray:none;stroke-dashoffset:0;stroke-opacity:1"
         d="m 152.61096,79.682959 c -8.05598,-0.23539 -15.43109,4.496215 -18.57509,11.917103 -3.49362,8.251996 -0.9307,17.822668 7.13864,23.583868 8.06934,5.76121 20.42959,10.072 31.24331,9.65611 1.77659,-0.0708 1.65678,-2.10442 0.0816,-2.3766 -5.3556,-1.07309 -10.57983,-2.73881 -15.47917,-4.84364 -1.91666,-0.8224 -3.81634,-1.72967 -5.63945,-2.68872 -2.40508,-1.2516 -4.74845,-2.75671 -6.73926,-4.04374 -3.5919,-2.34103 -5.88026,-6.34646 -6.22443,-10.894952 -0.62271,-8.305637 5.29081,-16.010547 13.2085,-17.209798 0.79061,-0.119621 1.585,-0.170438 2.37505,-0.151929 7.00235,0.162974 12.53832,5.669011 13.09015,13.019357 0.62336,8.305432 -5.28942,16.010762 -13.20695,17.210832 l -0.004,3.5e-4 c -1.53446,0.23024 -3.07803,0.20058 -4.57181,-0.0879 3.12079,1.79849 6.36834,3.37532 9.70483,4.72064 8.08385,-3.08639 13.17776,-11.11897 12.52278,-19.747112 -0.68313,-8.995248 -7.43156,-16.355574 -16.33388,-17.814935 -0.85737,-0.140511 -1.72314,-0.223721 -2.59158,-0.249081 z"
         sodipodi:nodetypes="cccccccccccccccccccc" />
      <path
         id="path3044"
         style="fill:#faaa38;fill-opacity:1;fill-rule:evenodd;stroke:none;stroke-width:0.0881944;stroke-linecap:round;stroke-linejoin:round;stroke-miterlimit:10;stroke-dasharray:none;stroke-dashoffset:0;stroke-opacity:1"
         d="m 151.85778,79.675418 c -7.75964,0.07055 -14.77642,4.735875 -17.82216,11.924853 -3.49362,8.251987 -0.93024,17.822379 7.13909,23.583579 8.06934,5.7612 20.42935,10.07214 31.24306,9.65625 1.77659,-0.0708 1.65683,-2.10441 0.0816,-2.37659 -5.3556,-1.07309 -10.57983,-2.73881 -15.47916,-4.84364 -1.91666,-0.8224 -3.81634,-1.72967 -5.63945,-2.68872 -2.40508,-1.2516 -4.74832,-2.75665 -6.73912,-4.04368 -3.5919,-2.34103 -5.88026,-6.34646 -6.22443,-10.894942 -0.62271,-8.305633 5.29081,-16.010556 13.2085,-17.209806 0.79061,-0.119621 1.585,-0.170438 2.37505,-0.151929 7.00234,0.162974 12.53832,5.669022 13.09015,13.019365 0.33133,4.414452 -1.18412,8.659162 -3.86539,11.847852 l 0.0294,-0.005 c 7.43289,-8.457702 4.4718,-20.427773 -0.0858,-24.338048 -2.3283,-1.613865 -5.02931,-2.741404 -7.96747,-3.223059 -0.85737,-0.140511 -1.72314,-0.22372 -2.59158,-0.24908 l 5.2e-4,5.16e-4 c -0.25175,-0.0074 -0.50262,-0.01003 -0.75293,-0.0078 z" />
      <path
         id="path3046"
         style="font-variation-settings:normal;opacity:1;fill:#f39539;fill-opacity:0.996078;fill-rule:evenodd;stroke:none;stroke-width:0.0705556;stroke-linecap:round;stroke-linejoin:round;stroke-miterlimit:10;stroke-dasharray:none;stroke-dashoffset:0;stroke-opacity:1;stop-color:#000000;stop-opacity:1"
         d="m 143.69601,86.666206 c -9.03964,5.770992 -9.99158,18.316314 -7.30292,23.875034 1.28306,1.71443 2.8793,3.28442 4.78162,4.64261 8.06934,5.7612 20.42935,10.07214 31.24306,9.65625 1.77659,-0.0708 1.65683,-2.10441 0.0816,-2.37659 -5.3556,-1.07309 -10.57983,-2.73881 -15.47916,-4.84364 -1.91666,-0.8224 -3.81634,-1.72967 -5.63945,-2.68872 -2.40508,-1.2516 -4.74832,-2.75665 -6.73912,-4.04368 -3.5919,-2.34103 -5.88026,-6.34646 -6.22443,-10.894942 -0.38529,-5.1389 1.7331,-10.046008 5.27875,-13.326322 z" />
      <path
         id="path12932"
         style="clip-rule:evenodd;fill:#ffd038;fill-opacity:1;fill-rule:evenodd;stroke:none;stroke-width:0.0881944;stroke-dasharray:none;stroke-opacity:1"
         class="st1"
         d="m 135.63999,111.38154 c -10.00339,-8.29377 -16.59837,-19.234432 -19.47996,-31.083201 -0.26109,-1.073962 0.91709,-1.488162 1.39876,-0.456064 3.42431,7.13717 8.19332,14.033213 14.0802,20.155213 0,0 -0.001,2.389062 1.00451,5.569112 1.00594,3.18004 2.99649,5.81494 2.99649,5.81494 z"
         sodipodi:nodetypes="cccczc" />
      <path
         class="st1"
         d="m 177.73649,123.4681 c -0.11453,-1.80641 -5.69299,-4.70802 -8.22674,-6.0169 -0.75943,-0.389 -0.45187,-1.07583 0.49507,-1.10331 6.07719,-0.0877 12.26949,5.34436 12.40169,6.84271 0.11732,1.52022 -5.48969,7.59342 -11.54266,8.20971 -0.93298,0.101 -1.32295,-0.54858 -0.6138,-1.02603 2.34892,-1.56963 7.61586,-5.12166 7.48644,-6.90618 z"
         id="path12936"
         style="clip-rule:evenodd;fill:#f5853a;fill-opacity:0.976471;fill-rule:evenodd;stroke-width:0.264583" />
    </g>
    <g
       id="g8269"
       transform="translate(6.17139)">
      <path
         id="path7594"
         style="fill:#fdc338;fill-opacity:1;fill-rule:evenodd;stroke:none;stroke-width:0.0881944;stroke-linecap:round;stroke-linejoin:round;stroke-miterlimit:10;stroke-dasharray:none;stroke-dashoffset:0;stroke-opacity:1"
         d="m 149.28552,147.36509 c -8.05598,-0.23539 -15.43109,4.49621 -18.57509,11.9171 -3.49362,8.252 -0.9307,17.82267 7.13864,23.58387 8.06934,5.76121 20.42959,10.072 31.24331,9.65611 1.77659,-0.0708 1.65678,-2.10442 0.0816,-2.3766 -5.3556,-1.07309 -10.57983,-2.73881 -15.47917,-4.84364 -1.91666,-0.8224 -3.81634,-1.72967 -5.63945,-2.68872 -2.40508,-1.2516 -4.74845,-2.75671 -6.73926,-4.04374 -3.5919,-2.34103 -5.88026,-6.34646 -6.22443,-10.89495 -0.62271,-8.30564 5.29081,-16.01055 13.2085,-17.2098 0.79061,-0.11962 1.585,-0.17044 2.37505,-0.15193 7.00235,0.16297 12.53832,5.66901 13.09015,13.01936 0.62336,8.30543 -5.28942,16.01076 -13.20695,17.21083 l -0.004,3.5e-4 c -1.53446,0.23024 -3.07803,0.20058 -4.57181,-0.0879 3.12079,1.79849 6.36834,3.37532 9.70483,4.72064 8.08385,-3.08639 13.17776,-11.11897 12.52278,-19.74711 -0.68313,-8.99525 -7.43156,-16.35558 -16.33388,-17.81494 -0.85737,-0.14051 -1.72314,-0.22372 -2.59158,-0.24908 z"
         sodipodi:nodetypes="cccccccccccccccccccc" />
      <path
         id="path7177"
         style="fill:#f9a938;fill-opacity:1;fill-rule:evenodd;stroke:none;stroke-width:0.0881944;stroke-linecap:round;stroke-linejoin:round;stroke-miterlimit:10;stroke-dasharray:none;stroke-dashoffset:0;stroke-opacity:1"
         d="m 148.53254,147.35741 c -0.44144,0.004 -0.88017,0.0255 -1.3162,0.0589 l -2.31562,4.00493 c 1.07874,-0.4502 2.21585,-0.77729 3.39927,-0.95653 0.79061,-0.11962 1.585,-0.17044 2.37505,-0.15193 7.00234,0.16297 12.53833,5.66902 13.09016,13.01936 0.62336,8.30542 -5.28943,16.01077 -13.20695,17.21084 l -0.004,5.1e-4 c -1.53445,0.23024 -3.07803,0.20063 -4.57181,-0.0879 3.12079,1.79849 6.36835,3.37533 9.70483,4.72064 8.08385,-3.08638 13.17773,-11.11898 12.52275,-19.74711 -0.68312,-8.99524 -7.43157,-16.35558 -16.33388,-17.81493 -0.8572,-0.14049 -1.72279,-0.22371 -2.59106,-0.24908 h -5.2e-4 c -0.25157,-0.007 -0.50227,-0.01 -0.7524,-0.008 z m -13.37852,20.92172 -3.97546,6.87607 c 1.44999,2.91906 3.68114,5.57643 6.67039,7.71064 8.06933,5.7612 20.42986,10.07215 31.24357,9.65626 1.77659,-0.0708 1.65683,-2.10442 0.0816,-2.3766 -5.35559,-1.07309 -10.57982,-2.7388 -15.47916,-4.84363 -1.91666,-0.8224 -3.81634,-1.72968 -5.63945,-2.68873 -2.40508,-1.2516 -4.74883,-2.75665 -6.73964,-4.04368 -3.43154,-2.23651 -5.66847,-5.99336 -6.1619,-10.29033 z" />
      <path
         id="path12938"
         style="clip-rule:evenodd;fill:#ffd038;fill-opacity:1;fill-rule:evenodd;stroke:none;stroke-width:0.0881944;stroke-dasharray:none;stroke-opacity:1"
         class="st1"
         d="m 132.31455,179.06367 c -10.00339,-8.29377 -16.59837,-19.23443 -19.47996,-31.0832 -0.26109,-1.07396 0.91709,-1.48816 1.39876,-0.45607 3.42431,7.13717 8.19332,14.03322 14.0802,20.15522 0,0 -0.001,2.38906 1.00451,5.56911 1.00594,3.18004 2.99649,5.81494 2.99649,5.81494 z"
         sodipodi:nodetypes="cccczc" />
      <path
         id="path12940"
         style="fill:#f8a138;fill-opacity:0.992157;fill-rule:evenodd;stroke:none;stroke-width:0.0881944;stroke-linecap:round;stroke-linejoin:round;stroke-miterlimit:10;stroke-dasharray:none;stroke-dashoffset:0;stroke-opacity:1"
         d="m 164.29591,155.10319 -1.81229,3.14503 c 0.69872,1.54509 1.14445,3.25737 1.28158,5.08393 0.62336,8.30542 -5.28943,16.01077 -13.20695,17.21084 l -0.004,5.1e-4 c -1.53445,0.23024 -3.07803,0.20063 -4.57181,-0.0879 3.12079,1.79849 6.36835,3.37533 9.70483,4.72064 8.08385,-3.08638 13.17773,-11.11898 12.52275,-19.74711 -0.29274,-3.85472 -1.70192,-7.40744 -3.91449,-10.32599 z m -19.38279,25.73228 -2.74505,4.74752 c 7.78775,4.33691 17.89443,7.2864 26.92445,6.93911 1.77659,-0.0708 1.65683,-2.10442 0.0816,-2.3766 -5.35559,-1.07309 -10.57982,-2.7388 -15.47916,-4.84363 -1.91666,-0.8224 -3.81634,-1.72968 -5.63945,-2.68873 -1.06879,-0.55619 -2.12355,-1.16273 -3.14244,-1.77767 z" />
      <path
         class="st1"
         d="m 174.41105,191.15023 c -0.11453,-1.80641 -5.69299,-4.70802 -8.22674,-6.0169 -0.75943,-0.389 -0.45187,-1.07583 0.49507,-1.10331 6.07719,-0.0877 12.26949,5.34436 12.40169,6.84271 0.11732,1.52022 -5.48969,7.59342 -11.54266,8.20971 -0.93298,0.101 -1.32295,-0.54858 -0.6138,-1.02603 2.34892,-1.56963 7.61586,-5.12166 7.48644,-6.90618 z"
         id="path12942"
         style="clip-rule:evenodd;fill:#f5853a;fill-opacity:0.976471;fill-rule:evenodd;stroke-width:0.264583" />
    </g>
    <path
       id="path323"
       style="fill:#fdc137;fill-opacity:1;fill-rule:evenodd;stroke:none;stroke-width:0.0881944;stroke-linecap:round;stroke-linejoin:round;stroke-miterlimit:10;stroke-dasharray:none;stroke-dashoffset:0;stroke-opacity:1"
       d="m 66.971388,122.25996 c 7.945508,-3.15211 12.933088,-11.11132 12.284566,-19.65439 -0.683129,-8.995239 -7.431569,-16.355575 -16.33388,-17.814935 -0.857369,-0.140511 -1.723141,-0.223721 -2.59158,-0.249081 l 7.6e-4,1.47e-4 v 0 c -8.055972,-0.23539 -15.431093,4.496222 -18.57509,11.917103 -3.493617,8.251986 -0.930692,17.822676 7.13864,23.583866 8.069332,5.7612 20.429601,10.072 31.24331,9.65611 1.776588,-0.0708 1.656778,-2.10442 0.0816,-2.3766 -5.355595,-1.07309 -10.579835,-2.73881 -15.47917,-4.84364 -1.916658,-0.8224 -3.816342,-1.72967 -5.63945,-2.68872 -2.405078,-1.2516 -4.748452,-2.75671 -6.73926,-4.04374 -3.591896,-2.34103 -5.88026,-6.34646 -6.22443,-10.89495 -0.622709,-8.305629 5.290818,-16.010548 13.2085,-17.209798 0.790609,-0.119621 1.585001,-0.170438 2.37505,-0.151929 7.002343,0.162974 12.538321,5.669018 13.09015,13.019357 0.623359,8.30542 -5.289428,16.01076 -13.20695,17.21083 l -0.004,3.5e-4 c -1.357078,0.20362 -2.721286,0.20396 -4.051871,0.002 0,0 2.812653,1.604 4.601301,2.41968 1.788647,0.81568 4.821804,2.11834 4.821804,2.11834 z"
       sodipodi:nodetypes="cccccscscccccccccccczc" />
    <path
       id="path325"
       style="fill:#faaa38;fill-opacity:1;fill-rule:evenodd;stroke:none;stroke-width:0.0881944;stroke-linecap:round;stroke-linejoin:round;stroke-miterlimit:10;stroke-dasharray:none;stroke-dashoffset:0;stroke-opacity:1"
       d="m 59.578074,84.53416 c -7.75964,0.07055 -14.77642,4.735875 -17.82216,11.924853 -3.49362,8.251987 -0.93024,17.822377 7.13909,23.583577 8.06934,5.7612 20.42935,10.07214 31.24306,9.65625 1.77659,-0.0708 1.65683,-2.10441 0.0816,-2.37659 -5.3556,-1.07309 -10.57983,-2.73881 -15.47916,-4.84364 -1.91666,-0.8224 -3.81634,-1.72967 -5.63945,-2.68872 -2.40508,-1.2516 -4.74832,-2.75665 -6.73912,-4.04368 -3.5919,-2.34103 -5.88026,-6.34646 -6.22443,-10.89494 -0.62271,-8.305633 5.29081,-16.010556 13.2085,-17.209806 0.79061,-0.119621 1.585,-0.170438 2.37505,-0.151929 7.00234,0.162974 12.53832,5.669022 13.09015,13.019365 0.33133,4.41445 -1.18412,8.65916 -3.86539,11.84785 l 0.0294,-0.005 c 7.43289,-8.4577 4.4718,-20.427771 -0.0858,-24.338046 -2.3283,-1.613865 -5.02931,-2.741404 -7.96747,-3.223059 -0.85737,-0.140511 -1.72314,-0.22372 -2.59158,-0.24908 l 5.2e-4,5.16e-4 c -0.25175,-0.0074 -0.50262,-0.01003 -0.75293,-0.0078 z" />
    <path
       id="path327"
       style="font-variation-settings:normal;fill:#f39539;fill-opacity:0.996078;fill-rule:evenodd;stroke:none;stroke-width:0.0705556;stroke-linecap:round;stroke-linejoin:round;stroke-miterlimit:10;stroke-dasharray:none;stroke-dashoffset:0;stroke-opacity:1;stop-color:#000000"
       d="m 51.416304,91.524948 c -9.03964,5.770992 -9.99158,18.316312 -7.30292,23.875032 1.28306,1.71443 2.8793,3.28442 4.78162,4.64261 8.06934,5.7612 20.42935,10.07214 31.24306,9.65625 1.77659,-0.0708 1.65683,-2.10441 0.0816,-2.37659 -5.3556,-1.07309 -10.57983,-2.73881 -15.47916,-4.84364 -1.91666,-0.8224 -3.81634,-1.72967 -5.63945,-2.68872 -2.40508,-1.2516 -4.74832,-2.75665 -6.73912,-4.04368 -3.5919,-2.34103 -5.88026,-6.34646 -6.22443,-10.89494 -0.38529,-5.1389 1.7331,-10.046008 5.27875,-13.326322 z" />
    <path
       class="st1"
       d="m 85.456784,128.32684 c -0.11453,-1.80641 -5.69299,-4.70802 -8.22674,-6.0169 -0.75943,-0.389 -0.45187,-1.07583 0.49507,-1.10331 6.07719,-0.0877 12.26949,5.34436 12.40169,6.84271 0.11732,1.52022 -5.48969,7.59342 -11.54266,8.20971 -0.93298,0.101 -1.32295,-0.54858 -0.6138,-1.02603 2.34892,-1.56963 7.61586,-5.12166 7.48644,-6.90618 z"
       id="path331"
       style="clip-rule:evenodd;fill:#f5853a;fill-opacity:0.976471;fill-rule:evenodd;stroke-width:0.264583" />
    <path
       id="path335"
       style="fill:#fdc137;fill-opacity:1;fill-rule:evenodd;stroke:none;stroke-width:0.0881944;stroke-linecap:round;stroke-linejoin:round;stroke-miterlimit:10;stroke-dasharray:none;stroke-dashoffset:0;stroke-opacity:1"
       d="m 59.957077,143.74085 c -8.05598,-0.23539 -15.43109,4.49622 -18.57509,11.91711 -3.49362,8.25199 -0.9307,17.82266 7.13864,23.58386 8.06934,5.76121 20.42959,10.072 31.24331,9.65611 1.77659,-0.0708 1.65678,-2.10442 0.0816,-2.3766 -5.3556,-1.07309 -10.57983,-2.73881 -15.47917,-4.84364 -1.91666,-0.8224 -3.81634,-1.72967 -5.63945,-2.68872 -2.40508,-1.2516 -4.74845,-2.75671 -6.73926,-4.04374 -3.5919,-2.34103 -5.88026,-6.34646 -6.22443,-10.89495 -0.62271,-8.30563 5.29081,-16.01054 13.2085,-17.2098 0.79061,-0.11962 1.585,-0.17043 2.37505,-0.15192 7.00235,0.16297 12.53832,5.66901 13.09015,13.01935 0.62336,8.30544 -5.28942,16.01077 -13.20695,17.21083 l -0.004,3.5e-4 c -1.53446,0.23024 -3.07803,0.20058 -4.57181,-0.0879 3.12079,1.79849 6.36834,3.37532 9.70483,4.72064 8.08385,-3.08639 13.17776,-11.11897 12.52278,-19.74711 -0.68313,-8.99525 -7.43156,-16.35557 -16.33388,-17.81493 -0.85737,-0.14051 -1.72314,-0.22372 -2.59158,-0.24908 z"
       sodipodi:nodetypes="cccccccccccccccccccc" />
    <path
       id="path337"
       style="fill:#faaa38;fill-opacity:1;fill-rule:evenodd;stroke:none;stroke-width:0.0881944;stroke-linecap:round;stroke-linejoin:round;stroke-miterlimit:10;stroke-dasharray:none;stroke-dashoffset:0;stroke-opacity:1"
       d="m 59.203897,143.73331 c -7.75964,0.0705 -14.77642,4.73588 -17.82216,11.92486 -3.49362,8.25198 -0.93024,17.82237 7.13909,23.58357 8.06934,5.7612 20.42935,10.07214 31.24306,9.65625 1.77659,-0.0708 1.65683,-2.10441 0.0816,-2.37659 -5.3556,-1.07309 -10.57983,-2.73881 -15.47916,-4.84364 -1.91666,-0.8224 -3.81634,-1.72967 -5.63945,-2.68872 -2.40508,-1.2516 -4.74832,-2.75665 -6.73912,-4.04368 -3.5919,-2.34103 -5.88026,-6.34646 -6.22443,-10.89494 -0.62271,-8.30563 5.29081,-16.01055 13.2085,-17.2098 0.79061,-0.11962 1.585,-0.17044 2.37505,-0.15193 7.00234,0.16297 12.53832,5.66902 13.09015,13.01936 0.33133,4.41445 -1.18412,8.65916 -3.86539,11.84785 l 0.0294,-0.005 c 7.43289,-8.4577 4.4718,-20.42777 -0.0858,-24.33804 -2.3283,-1.61387 -5.02931,-2.74141 -7.96747,-3.22306 -0.85737,-0.14051 -1.72314,-0.22372 -2.59158,-0.24908 l 5.2e-4,5.1e-4 c -0.25175,-0.007 -0.50262,-0.01 -0.75293,-0.008 z" />
    <path
       id="path339"
       style="font-variation-settings:normal;fill:#f39539;fill-opacity:0.996078;fill-rule:evenodd;stroke:none;stroke-width:0.0705556;stroke-linecap:round;stroke-linejoin:round;stroke-miterlimit:10;stroke-dasharray:none;stroke-dashoffset:0;stroke-opacity:1;stop-color:#000000"
       d="m 51.042127,150.7241 c -9.03964,5.77099 -9.99158,18.31631 -7.30292,23.87503 1.28306,1.71443 2.8793,3.28442 4.78162,4.64261 8.06934,5.7612 20.42935,10.07215 31.24306,9.65625 1.77659,-0.0708 1.65683,-2.10441 0.0816,-2.37658 -5.3556,-1.07309 -10.57983,-2.73881 -15.47916,-4.84364 -1.91666,-0.82241 -3.81634,-1.72967 -5.63945,-2.68872 -2.40508,-1.2516 -4.74832,-2.75665 -6.73912,-4.04368 -3.5919,-2.34103 -5.88026,-6.34646 -6.22443,-10.89495 -0.38529,-5.1389 1.7331,-10.046 5.27875,-13.32632 z" />
    <path
       id="path341"
       style="clip-rule:evenodd;fill:#ffd038;fill-opacity:1;fill-rule:evenodd;stroke:none;stroke-width:0.0881944;stroke-dasharray:none;stroke-opacity:1"
       class="st1"
       d="m 42.986107,175.43943 c -10.00339,-8.29377 -16.59837,-19.23443 -19.47996,-31.0832 -0.26109,-1.07396 0.91709,-1.48816 1.39876,-0.45606 3.42431,7.13717 8.19332,14.03321 14.0802,20.15521 0,0 -10e-4,2.38906 1.00451,5.56912 1.00594,3.18004 2.99649,5.81493 2.99649,5.81493 z"
       sodipodi:nodetypes="cccczc" />
    <path
       class="st1"
       d="m 85.082607,187.526 c -0.11453,-1.80642 -5.69299,-4.70803 -8.22674,-6.01691 -0.75943,-0.389 -0.45187,-1.07583 0.49507,-1.10331 6.07719,-0.0877 12.26949,5.34436 12.40169,6.84271 0.11732,1.52022 -5.48969,7.59342 -11.54266,8.20971 -0.93298,0.101 -1.32295,-0.54858 -0.6138,-1.02603 2.34892,-1.56963 7.61586,-5.12166 7.48644,-6.90617 z"
       id="path343"
       style="clip-rule:evenodd;fill:#f5853a;fill-opacity:0.976471;fill-rule:evenodd;stroke-width:0.264583" />
    <path
       id="path363"
       style="fill:#faaa38;fill-opacity:1;fill-rule:evenodd;stroke:none;stroke-width:0.0881944;stroke-linecap:round;stroke-linejoin:round;stroke-miterlimit:10;stroke-dasharray:none;stroke-dashoffset:0;stroke-opacity:1"
       d="m 58.441406,142.51953 c -6.892884,0.26274 -13.497374,4.23133 -16.956152,10.20036 -3.262904,5.42813 -3.789823,12.40845 -1.259918,18.22912 1.862398,4.49599 5.409433,8.11528 9.534735,10.61224 6.921413,4.33851 14.799963,7.15173 22.895185,8.22864 2.568467,0.28889 5.179389,0.52129 7.756853,0.26089 1.512739,-0.24945 2.389075,-2.11506 1.574219,-3.42383 -0.753327,-1.41835 -2.526404,-1.38301 -3.882812,-1.74218 -2.632859,-0.61291 -5.19353,-1.34747 -7.681102,-2.19722 -0.60984,-0.21657 -1.554364,-0.54147 -2.157397,-0.77597 -5.42033,-2.02188 -10.606017,-4.66067 -15.413921,-7.87987 -4.081496,-2.51548 -6.232549,-7.47331 -5.863424,-12.18026 0.369416,-6.21294 4.900896,-12.09566 11.029481,-13.56044 4.188632,-1.09724 8.919244,0.24898 11.812925,3.49415 3.699021,3.994 4.33609,10.19749 2.180165,15.09411 -0.584535,1.45739 -1.510196,2.75843 -2.424571,4.00349 -0.263645,0.64439 -0.219586,1.21459 0.359994,1.65567 0.454315,0.41442 1.150461,0.18466 1.585578,-0.1858 4.073574,-4.53396 5.627216,-11.03311 4.450595,-16.97214 -0.678182,-3.41569 -2.090159,-6.8897 -4.790433,-9.2008 -3.290405,-2.25325 -7.261913,-3.62457 -11.251953,-3.63867 -0.3345,-0.0858 -1.032218,-0.0238 -1.498047,-0.0215 z" />
    <path
       id="path366"
       style="fill:#faaa38;fill-opacity:1;fill-rule:evenodd;stroke:none;stroke-width:0.0881944;stroke-linecap:round;stroke-linejoin:round;stroke-miterlimit:10;stroke-dasharray:none;stroke-dashoffset:0;stroke-opacity:1"
       d="m 57.537461,207.86473 c -7.75964,0.0705 -14.77642,4.73588 -17.82216,11.92486 -3.49362,8.25198 -0.93024,17.82237 7.13909,23.58357 8.06934,5.7612 20.42935,10.07214 31.24306,9.65625 1.77659,-0.0708 1.65683,-2.10441 0.0816,-2.37659 -5.3556,-1.07309 -10.57983,-2.73881 -15.47916,-4.84364 -1.91666,-0.8224 -3.81634,-1.72967 -5.63945,-2.68872 -2.40508,-1.2516 -4.74832,-2.75665 -6.73912,-4.04368 -3.5919,-2.34103 -5.88026,-6.34646 -6.22443,-10.89494 -0.62271,-8.30563 5.29081,-16.01055 13.2085,-17.2098 0.79061,-0.11962 1.585,-0.17044 2.37505,-0.15193 7.00234,0.16297 12.53832,5.66902 13.09015,13.01936 0.33133,4.41445 -1.18412,8.65916 -3.86539,11.84785 l 0.0294,-0.005 c 7.43289,-8.4577 4.4718,-20.42777 -0.0858,-24.33804 -2.3283,-1.61387 -5.02931,-2.74141 -7.96747,-3.22306 -0.85737,-0.14051 -1.72314,-0.22372 -2.59158,-0.24908 l 5.2e-4,5.1e-4 c -0.25175,-0.007 -0.50262,-0.01 -0.75293,-0.008 z" />
    <path
       id="path368"
       style="fill:#fdc137;fill-opacity:1;fill-rule:evenodd;stroke:none;stroke-width:0.0881944;stroke-linecap:round;stroke-linejoin:round;stroke-miterlimit:10;stroke-dasharray:none;stroke-dashoffset:0;stroke-opacity:1"
       d="m 58.290641,207.87227 c -8.05598,-0.23539 -15.43109,4.49622 -18.57509,11.91711 -3.49362,8.25199 -0.9307,17.82266 7.13864,23.58386 8.06934,5.76121 20.42959,10.072 31.24331,9.65611 1.77659,-0.0708 1.65678,-2.10442 0.0816,-2.3766 -5.3556,-1.07309 -10.57983,-2.73881 -15.47917,-4.84364 -1.91666,-0.8224 -3.81634,-1.72967 -5.63945,-2.68872 -2.40508,-1.2516 -4.74845,-2.75671 -6.73926,-4.04374 -3.5919,-2.34103 -5.88026,-6.34646 -6.22443,-10.89495 -0.62271,-8.30563 5.29081,-16.01054 13.2085,-17.2098 0.79061,-0.11962 1.585,-0.17043 2.37505,-0.15192 7.00235,0.16297 12.53832,5.66901 13.09015,13.01935 0.62336,8.30544 -5.28942,16.01077 -13.20695,17.21083 l -0.004,3.5e-4 c -1.53446,0.23024 -3.07803,0.20058 -4.57181,-0.0879 3.12079,1.79849 6.36834,3.37532 9.70483,4.72064 8.08385,-3.08639 13.17776,-11.11897 12.52278,-19.74711 -0.68313,-8.99525 -7.43156,-16.35557 -16.33388,-17.81493 -0.85737,-0.14051 -1.72314,-0.22372 -2.59158,-0.24908 z"
       sodipodi:nodetypes="cccccccccccccccccccc" />
    <path
       id="path370"
       style="fill:#faaa38;fill-opacity:1;fill-rule:evenodd;stroke:none;stroke-width:0.0881944;stroke-linecap:round;stroke-linejoin:round;stroke-miterlimit:10;stroke-dasharray:none;stroke-dashoffset:0;stroke-opacity:1"
       d="m 57.537461,207.86473 c -7.75964,0.0705 -14.77642,4.73588 -17.82216,11.92486 -3.49362,8.25198 -0.93024,17.82237 7.13909,23.58357 8.06934,5.7612 20.42935,10.07214 31.24306,9.65625 1.77659,-0.0708 1.65683,-2.10441 0.0816,-2.37659 -5.3556,-1.07309 -10.57983,-2.73881 -15.47916,-4.84364 -1.91666,-0.8224 -3.81634,-1.72967 -5.63945,-2.68872 -2.40508,-1.2516 -4.74832,-2.75665 -6.73912,-4.04368 -3.5919,-2.34103 -5.88026,-6.34646 -6.22443,-10.89494 -0.62271,-8.30563 5.29081,-16.01055 13.2085,-17.2098 0.79061,-0.11962 1.585,-0.17044 2.37505,-0.15193 7.00234,0.16297 12.53832,5.66902 13.09015,13.01936 0.33133,4.41445 -1.18412,8.65916 -3.86539,11.84785 l 0.0294,-0.005 c 7.43289,-8.4577 4.4718,-20.42777 -0.0858,-24.33804 -2.3283,-1.61387 -5.02931,-2.74141 -7.96747,-3.22306 -0.85737,-0.14051 -1.72314,-0.22372 -2.59158,-0.24908 l 5.2e-4,5.1e-4 c -0.25175,-0.007 -0.50262,-0.01 -0.75293,-0.008 z" />
    <path
       id="path372"
       style="font-variation-settings:normal;fill:#f39539;fill-opacity:0.996078;fill-rule:evenodd;stroke:none;stroke-width:0.0705556;stroke-linecap:round;stroke-linejoin:round;stroke-miterlimit:10;stroke-dasharray:none;stroke-dashoffset:0;stroke-opacity:1;stop-color:#000000"
       d="m 49.375691,214.85552 c -9.03964,5.77099 -9.99158,18.31631 -7.30292,23.87503 1.28306,1.71443 2.8793,3.28442 4.78162,4.64261 8.06934,5.7612 20.42935,10.07215 31.24306,9.65625 1.77659,-0.0708 1.65683,-2.10441 0.0816,-2.37658 -5.3556,-1.07309 -10.57983,-2.73881 -15.47916,-4.84364 -1.91666,-0.82241 -3.81634,-1.72967 -5.63945,-2.68872 -2.40508,-1.2516 -4.74832,-2.75665 -6.73912,-4.04368 -3.5919,-2.34103 -5.88026,-6.34646 -6.22443,-10.89495 -0.38529,-5.1389 1.7331,-10.046 5.27875,-13.32632 z" />
    <path
       id="path374"
       style="clip-rule:evenodd;fill:#ffd038;fill-opacity:1;fill-rule:evenodd;stroke:none;stroke-width:0.0881944;stroke-dasharray:none;stroke-opacity:1"
       class="st1"
       d="m 41.319671,239.57085 c -10.00339,-8.29377 -16.59837,-19.23443 -19.47996,-31.0832 -0.26109,-1.07396 0.91709,-1.48816 1.39876,-0.45606 3.42431,7.13717 8.19332,14.03321 14.0802,20.15521 0,0 -0.001,2.38906 1.00451,5.56912 1.00594,3.18004 2.99649,5.81493 2.99649,5.81493 z"
       sodipodi:nodetypes="cccczc" />
    <path
       class="st1"
       d="m 83.416171,251.65742 c -0.11453,-1.80642 -5.69299,-4.70803 -8.22674,-6.01691 -0.75943,-0.389 -0.45187,-1.07583 0.49507,-1.10331 6.07719,-0.0877 12.26949,5.34436 12.40169,6.84271 0.11732,1.52022 -5.48969,7.59342 -11.54266,8.20971 -0.93298,0.101 -1.32295,-0.54858 -0.6138,-1.02603 2.34892,-1.56963 7.61586,-5.12166 7.48644,-6.90617 z"
       id="path376"
       style="clip-rule:evenodd;fill:#f5853a;fill-opacity:0.976471;fill-rule:evenodd;stroke-width:0.264583" />
    <path
       id="path378"
       style="fill:#faaa38;fill-opacity:1;fill-rule:evenodd;stroke:none;stroke-width:0.0881944;stroke-linecap:round;stroke-linejoin:round;stroke-miterlimit:10;stroke-dasharray:none;stroke-dashoffset:0;stroke-opacity:1"
       d="m 56.775391,206.47461 c -7.021712,0.26028 -13.744359,4.34476 -17.208113,10.45859 -3.224335,5.47666 -3.696013,12.47693 -1.133813,18.30549 1.877022,4.45431 5.38439,8.05775 9.480064,10.54889 7.187207,4.52251 15.406504,7.40904 23.838424,8.40383 2.335449,0.21721 4.706074,0.41843 7.042969,0.16015 1.566329,-0.27239 2.514091,-2.16572 1.736529,-3.566 -0.580888,-1.29448 -2.077856,-1.56481 -3.325976,-1.78477 -8.062228,-1.7856 -15.869012,-4.82648 -22.941803,-9.09845 -2.385213,-1.49937 -5.000588,-2.88886 -6.545968,-5.34689 -3.196458,-4.68903 -2.866492,-11.22781 0.252465,-15.86844 2.716524,-4.24894 7.839583,-7.04413 12.923741,-6.36032 4.405465,0.50011 8.237051,3.76868 9.679638,7.92303 1.794699,4.88608 0.586788,10.62272 -2.76886,14.55301 -0.08214,0.57955 -0.527299,1.23986 0.0936,1.663 0.237066,0.5573 0.964752,0.71667 1.469377,0.50117 1.109245,-0.56032 1.695607,-1.74887 2.404556,-2.72043 4.075294,-6.29371 4.105874,-14.90561 0.239495,-21.30116 -0.973737,-1.61 -2.341156,-2.97475 -4.040532,-3.80615 -3.385294,-1.91735 -7.310769,-2.84095 -11.195796,-2.66455 z" />
    <path
       id="path329"
       style="clip-rule:evenodd;fill:#ffd038;fill-opacity:1;fill-rule:evenodd;stroke:none;stroke-width:0.0881944;stroke-dasharray:none;stroke-opacity:1"
       class="st1"
       d="m 42.441351,114.86144 c 0.525467,0.85801 0.918933,1.37884 0.918933,1.37884 v 0 c -10.00338,-8.29376 -16.598373,-19.234442 -19.47996,-31.083199 -0.26109,-1.073961 0.91709,-1.488161 1.39876,-0.456064 3.392467,7.0708 8.104756,13.904957 13.916279,19.984243 0,0 0.06721,2.72498 0.872227,5.23757 0.805014,2.51258 2.373761,4.93861 2.373761,4.93861 z"
       sodipodi:nodetypes="ccsccczc" />
  </g>
  <g
     inkscape:groupmode="layer"
     id="layer2"
     inkscape:label="cuts"
     style="display:none">
    <path
       style="font-variation-settings:normal;opacity:1;fill:none;fill-opacity:0.18894;fill-rule:evenodd;stroke:#000000;stroke-width:0.0705556;stroke-linecap:round;stroke-linejoin:round;stroke-miterlimit:10;stroke-dasharray:none;stroke-dashoffset:0;stroke-opacity:1;stop-color:#000000;stop-opacity:1"
       d="m 144.05061,94.53853 c -10.34029,5.99974 -10.78578,20.56347 -7.24569,25.40689 2.80359,3.83576 10.42306,9.04157 14.0978,10.19094 3.67475,1.14937 12.40913,3.8811 16.18144,3.79582 3.7723,-0.0853 6.7517,0.27971 7.18804,-0.54667 0.43635,-0.82639 0.15112,-2.48925 -0.53642,-3.09169 -0.68753,-0.60245 -7.93078,-1.47672 -9.89804,-2.15166 -1.96726,-0.67493 -7.56935,-2.60734 -10.22869,-4.06748 -2.65935,-1.46013 -9.13252,-5.3465 -9.13252,-5.3465 z"
       id="path3042"
       sodipodi:nodetypes="cssssssscc" />
    <path
       style="font-variation-settings:normal;opacity:1;fill:none;fill-opacity:0.18894;fill-rule:evenodd;stroke:#000000;stroke-width:0.0705556;stroke-linecap:round;stroke-linejoin:round;stroke-miterlimit:10;stroke-dasharray:none;stroke-dashoffset:0;stroke-opacity:1;stop-color:#000000;stop-opacity:1"
       d="m 143.37907,36.384767 c 5.65117,-23.634676 29.80833,-10.960811 31.10228,-5.194689 4.47382,-5.339787 -0.10813,-10.263724 -0.10813,-10.263724 l -26.27824,-3.740463 -12.51192,14.731831 3.45673,29.033509 11.41894,10.036328 29.27613,-4.410424 0.13338,-4.819502 -16.07015,-2.576268 -11.20184,-5.791302 z"
       id="path2229"
       sodipodi:nodetypes="cccccccccccc" />
    <path
       style="font-variation-settings:normal;opacity:1;fill:none;fill-opacity:0.18894;fill-rule:evenodd;stroke:#000000;stroke-width:0.0705556;stroke-linecap:round;stroke-linejoin:round;stroke-miterlimit:10;stroke-dasharray:none;stroke-dashoffset:0;stroke-opacity:1;stop-color:#000000;stop-opacity:1"
       d="m 162.90546,58.500147 c -11.30093,2.053663 -24.38039,-9.944171 -24.38039,-9.944171 l 12.65016,19.697059 27.95201,-1.885286 0.19996,-4.11567 -12.82829,-3.014189 z"
       id="path1296"
       sodipodi:nodetypes="ccccccc" />
    <path
       style="font-variation-settings:normal;opacity:1;fill:none;fill-opacity:0.18894;fill-rule:evenodd;stroke:#000000;stroke-width:0.0705556;stroke-linecap:round;stroke-linejoin:round;stroke-miterlimit:10;stroke-dasharray:none;stroke-dashoffset:0;stroke-opacity:1;stop-color:#000000;stop-opacity:1"
       d="m 162.98695,115.74633 c 7.95209,-9.04849 4.00765,-22.118116 -1.06101,-25.036377 -5.06867,-2.918262 -18.21509,-7.534209 -26.82807,5.413467 -8.61297,12.94767 1.1224,24.67792 5.00982,27.39794 3.88743,2.72003 14.52748,8.46609 24.78166,9.43604 10.25419,0.96995 9.22345,0.58274 9.40904,-0.3731 0.18558,-0.95584 0.20354,-2.85253 -1.23507,-2.91867 -1.43861,-0.0661 -10.0322,-1.54454 -14.44191,-3.39688 -4.40972,-1.85233 -10.09421,-4.66089 -11.12192,-5.75633 -1.02771,-1.09544 0.0955,-2.11566 0.0955,-2.11566 z"
       id="path5976"
       sodipodi:nodetypes="csssssssscc" />
    <path
       id="path7171"
       style="font-variation-settings:normal;opacity:1;vector-effect:none;fill:none;fill-opacity:0.711922;fill-rule:evenodd;stroke:#011c00;stroke-width:0.705556;stroke-linecap:round;stroke-linejoin:round;stroke-miterlimit:10;stroke-dasharray:none;stroke-dashoffset:0;stroke-opacity:0.764977;stop-color:#000000;stop-opacity:1"
       d="m 171.99825,141.7373 -15.84374,27.49464 -3.39973,-1.95909 -18.17282,31.43087 24.81932,14.34981 34.05901,-58.90702 z" />
    <path
       id="path7175"
       style="font-variation-settings:normal;opacity:1;vector-effect:none;fill:none;fill-opacity:0.711922;fill-rule:evenodd;stroke:#011c00;stroke-width:0.705556;stroke-linecap:round;stroke-linejoin:round;stroke-miterlimit:10;stroke-dasharray:none;stroke-dashoffset:0;stroke-opacity:0.764977;stop-color:#000000;stop-opacity:1"
       d="m 133.06829,122.35795 -15.84374,27.49464 -3.39973,-1.95909 -18.172816,31.43087 24.819316,14.34981 34.05901,-58.90702 z" />
    <path
       id="path1778"
       style="fill:#faaa38;fill-opacity:0.26163504;fill-rule:evenodd;stroke:#000000;stroke-width:0.0881944;stroke-linecap:round;stroke-linejoin:round;stroke-miterlimit:10;stroke-dasharray:none;stroke-dashoffset:0;stroke-opacity:1"
       d="m 58.822266,83.496094 c -6.833044,0.262158 -13.380368,4.195004 -16.809668,10.112472 -3.235042,5.381423 -3.760957,12.302194 -1.250153,18.072864 1.849548,4.46239 5.371547,8.05597 9.468329,10.53217 6.955221,4.35997 14.879626,7.17797 23.019522,8.22528 2.480325,0.27368 4.999389,0.486 7.487985,0.24276 1.452677,-0.22561 2.259668,-2.05834 1.408037,-3.2665 -0.849579,-1.35875 -2.640951,-1.19961 -3.996399,-1.62868 -3.808595,-0.8891 -7.543936,-2.08158 -11.177263,-3.52669 -1.135067,-0.47041 -2.536895,-1.05104 -3.674207,-1.58361 -1.834694,-0.85121 -3.642216,-1.75307 -5.468371,-2.78749 -1.823078,-1.07769 -3.810434,-2.26869 -5.645069,-3.56948 -4.101225,-3.09905 -5.782958,-8.69502 -4.736324,-13.63855 1.112848,-5.825812 5.858069,-10.958914 11.794638,-11.946589 4.313774,-0.817196 8.987037,0.9267 11.668012,4.412863 3.580019,4.467669 3.727869,11.068576 0.96583,15.977856 -0.485581,0.95595 -1.186646,1.79968 -1.779147,2.66829 -0.308381,0.62841 -0.06773,1.11727 0.437138,1.53897 0.964008,0.31599 1.571912,-0.66525 2.07605,-1.31503 4.859908,-6.24636 5.219093,-15.476589 1.146606,-22.208406 -0.932397,-1.528615 -2.214439,-2.846465 -3.832273,-3.643846 -2.916276,-1.648041 -6.267411,-2.638684 -9.614992,-2.649123 -0.383133,-0.07671 -0.977262,-0.02104 -1.488281,-0.01953 z" />
  </g>
</svg>
